<?xml version="1.0" standalone="no"?>
<!DOCTYPE svg PUBLIC "-//W3C//DTD SVG 20010904//EN"
 "http://www.w3.org/TR/2001/REC-SVG-20010904/DTD/svg10.dtd">
<svg version="1.0" xmlns="http://www.w3.org/2000/svg"
 width="700.000000pt" height="700.000000pt" viewBox="0 0 700.000000 700.000000"
 preserveAspectRatio="xMidYMid meet">
<metadata>
Created by potrace 1.14, written by Peter Selinger 2001-2017
</metadata>
<g transform="translate(0.000000,700.000000) scale(0.100000,-0.100000)"
fill="#000000" stroke="none">
<path d="M4550 6404 c-116 -24 -188 -62 -278 -145 -80 -74 -152 -189 -166
-264 -3 -13 -8 -30 -13 -37 -4 -7 -8 -298 -9 -646 -1 -348 -4 -635 -8 -639 -3
-3 -680 -7 -1503 -8 -1391 -1 -1502 -2 -1561 -18 -179 -50 -335 -198 -400
-381 l-26 -71 0 -690 -1 -690 23 -70 c65 -193 209 -332 407 -392 42 -13 150
-16 678 -18 345 -1 630 -5 634 -8 3 -4 7 -289 8 -634 2 -623 2 -629 24 -698
60 -183 206 -328 391 -388 63 -21 82 -21 745 -22 531 0 691 3 729 13 203 54
368 216 423 416 15 54 17 135 18 684 1 342 5 625 8 629 4 3 289 7 634 8 526 2
636 5 678 17 228 69 388 247 423 471 10 63 8 3089 -2 3130 -55 228 -226 400
-446 449 -86 20 -1322 21 -1410 2z m1281 -599 c0 -16 1 -279 2 -583 l2 -552
-25 -1 c-32 -1 -1110 -1 -1130 0 -13 1 -15 72 -15 578 0 318 3 580 7 583 3 3
265 5 582 5 l576 0 1 -30z m-3500 -1730 c5 -58 2 -1140 -3 -1148 -8 -14 -1158
-16 -1159 -2 -1 13 -1 1148 0 1155 2 10 1161 5 1162 -5z m1744 6 c14 -1 12
-1151 -2 -1159 -15 -9 -1141 -7 -1150 1 -9 9 -10 1139 -2 1152 5 7 206 9 576
8 312 0 573 -2 578 -2z m1756 -1 c4 -24 1 -1140 -3 -1151 -5 -12 -93 -14 -577
-13 -314 0 -574 4 -578 7 -3 4 -7 266 -7 582 -1 490 1 575 13 577 26 5 1151 3
1152 -2z m-1755 -1752 c5 -4 9 -242 8 -584 l-1 -577 -567 -1 c-312 -1 -575 2
-584 5 -16 6 -17 49 -15 570 0 310 1 571 2 579 1 13 71 15 574 14 316 0 578
-3 583 -6z"/>
</g>
</svg>
